<?xml version="1.0" encoding="UTF-8" standalone="no"?>
<!DOCTYPE svg PUBLIC "-//W3C//DTD SVG 1.1//EN"
 "http://www.w3.org/Graphics/SVG/1.1/DTD/svg11.dtd">
<!-- Generated by graphviz version 2.47.0 (20210316.0004)
 -->
<!-- Title: dependencies Pages: 1 -->
<svg width="612pt" height="284pt"
 viewBox="0.00 0.00 612.00 284.00" xmlns="http://www.w3.org/2000/svg" xmlns:xlink="http://www.w3.org/1999/xlink">
<g id="graph0" class="graph" transform="scale(1 1) rotate(0) translate(4 280)">
<title>dependencies</title>
<polygon fill="white" stroke="transparent" points="-4,4 -4,-280 608,-280 608,4 -4,4"/>
<text text-anchor="start" x="281.01" y="-42.4" font-family="Times-12" font-weight="bold" font-size="14.00">Legend</text>
<polygon fill="#ffffb3" stroke="transparent" points="68,-10 68,-30 88,-30 88,-10 68,-10"/>
<text text-anchor="start" x="91.63" y="-15.4" font-family="Times-12" font-size="14.00"> &#160;Declarations</text>
<polygon fill="#8dd3c7" stroke="transparent" points="181,-10 181,-30 201,-30 201,-10 181,-10"/>
<text text-anchor="start" x="204.73" y="-15.4" font-family="Times-12" font-size="14.00"> &#160;Module</text>
<polygon fill="#80b1d3" stroke="transparent" points="267,-10 267,-30 287,-30 287,-10 267,-10"/>
<text text-anchor="start" x="290.78" y="-15.4" font-family="Times-12" font-size="14.00"> &#160;Bootstrap</text>
<polygon fill="#fdb462" stroke="transparent" points="364,-10 364,-30 384,-30 384,-10 364,-10"/>
<text text-anchor="start" x="387.67" y="-15.4" font-family="Times-12" font-size="14.00"> &#160;Providers</text>
<polygon fill="#fb8072" stroke="transparent" points="460,-10 460,-30 480,-30 480,-10 460,-10"/>
<text text-anchor="start" x="483.73" y="-15.4" font-family="Times-12" font-size="14.00"> &#160;Exports</text>
<g id="clust1" class="cluster">
<title>cluster_AuthModule</title>
<polygon fill="none" stroke="black" stroke-dasharray="1,5" points="8,-70 8,-268 596,-268 596,-70 8,-70"/>
</g>
<g id="clust3" class="cluster">
<title>cluster_AuthModule_imports</title>
<polygon fill="none" stroke="black" points="480,-78 480,-130 588,-130 588,-78 480,-78"/>
</g>
<g id="clust6" class="cluster">
<title>cluster_AuthModule_providers</title>
<polygon fill="none" stroke="black" points="16,-78 16,-130 472,-130 472,-78 16,-78"/>
</g>
<g id="clust4" class="cluster">
<title>cluster_AuthModule_exports</title>
<polygon fill="none" stroke="black" points="205,-208 205,-260 437,-260 437,-208 205,-208"/>
</g>
<!-- RedisModule -->
<g id="node1" class="node">
<title>RedisModule</title>
<polygon fill="#8dd3c7" stroke="black" points="579.94,-122 576.94,-126 555.94,-126 552.94,-122 488.06,-122 488.06,-86 579.94,-86 579.94,-122"/>
<text text-anchor="middle" x="534" y="-99.8" font-family="Times,serif" font-size="14.00">RedisModule</text>
</g>
<!-- AuthModule -->
<g id="node2" class="node">
<title>AuthModule</title>
<polygon fill="#8dd3c7" stroke="black" points="359.55,-187 356.55,-191 335.55,-191 332.55,-187 272.45,-187 272.45,-151 359.55,-151 359.55,-187"/>
<text text-anchor="middle" x="316" y="-164.8" font-family="Times,serif" font-size="14.00">AuthModule</text>
</g>
<!-- RedisModule&#45;&gt;AuthModule -->
<g id="edge1" class="edge">
<title>RedisModule&#45;&gt;AuthModule</title>
<path fill="none" stroke="black" d="M534,-122.11C534,-141.34 534,-169 534,-169 534,-169 369.59,-169 369.59,-169"/>
<polygon fill="black" stroke="black" points="369.59,-165.5 359.59,-169 369.59,-172.5 369.59,-165.5"/>
</g>
<!-- AuthRepository  -->
<g id="node3" class="node">
<title>AuthRepository </title>
<polygon fill="#fb8072" stroke="black" points="429.43,-252 320.57,-252 320.57,-216 429.43,-216 429.43,-252"/>
<text text-anchor="middle" x="375" y="-229.8" font-family="Times,serif" font-size="14.00">AuthRepository </text>
</g>
<!-- AuthModule&#45;&gt;AuthRepository  -->
<g id="edge2" class="edge">
<title>AuthModule&#45;&gt;AuthRepository </title>
<path fill="none" stroke="black" stroke-dasharray="5,2" d="M340.15,-187.11C340.15,-187.11 340.15,-205.99 340.15,-205.99"/>
<polygon fill="black" stroke="black" points="336.65,-205.99 340.15,-215.99 343.65,-205.99 336.65,-205.99"/>
</g>
<!-- AuthService  -->
<g id="node4" class="node">
<title>AuthService </title>
<polygon fill="#fb8072" stroke="black" points="302.98,-252 213.02,-252 213.02,-216 302.98,-216 302.98,-252"/>
<text text-anchor="middle" x="258" y="-229.8" font-family="Times,serif" font-size="14.00">AuthService </text>
</g>
<!-- AuthModule&#45;&gt;AuthService  -->
<g id="edge3" class="edge">
<title>AuthModule&#45;&gt;AuthService </title>
<path fill="none" stroke="black" stroke-dasharray="5,2" d="M287.48,-187.11C287.48,-187.11 287.48,-205.99 287.48,-205.99"/>
<polygon fill="black" stroke="black" points="283.98,-205.99 287.48,-215.99 290.98,-205.99 283.98,-205.99"/>
</g>
<!-- AuthRepository -->
<g id="node5" class="node">
<title>AuthRepository</title>
<ellipse fill="#fdb462" stroke="black" cx="391" cy="-104" rx="72.95" ry="18"/>
<text text-anchor="middle" x="391" y="-99.8" font-family="Times,serif" font-size="14.00">AuthRepository</text>
</g>
<!-- AuthRepository&#45;&gt;AuthModule -->
<g id="edge4" class="edge">
<title>AuthRepository&#45;&gt;AuthModule</title>
<path fill="none" stroke="black" d="M339.02,-116.84C339.02,-116.84 339.02,-140.52 339.02,-140.52"/>
<polygon fill="black" stroke="black" points="335.52,-140.52 339.02,-150.52 342.52,-140.52 335.52,-140.52"/>
</g>
<!-- AuthService -->
<g id="node6" class="node">
<title>AuthService</title>
<ellipse fill="#fdb462" stroke="black" cx="241" cy="-104" rx="59.11" ry="18"/>
<text text-anchor="middle" x="241" y="-99.8" font-family="Times,serif" font-size="14.00">AuthService</text>
</g>
<!-- AuthService&#45;&gt;AuthModule -->
<g id="edge5" class="edge">
<title>AuthService&#45;&gt;AuthModule</title>
<path fill="none" stroke="black" d="M286.27,-115.92C286.27,-115.92 286.27,-140.77 286.27,-140.77"/>
<polygon fill="black" stroke="black" points="282.77,-140.77 286.27,-150.77 289.77,-140.77 282.77,-140.77"/>
</g>
<!-- RefreshService -->
<g id="node7" class="node">
<title>RefreshService</title>
<ellipse fill="#fdb462" stroke="black" cx="94" cy="-104" rx="70.04" ry="18"/>
<text text-anchor="middle" x="94" y="-99.8" font-family="Times,serif" font-size="14.00">RefreshService</text>
</g>
<!-- RefreshService&#45;&gt;AuthModule -->
<g id="edge6" class="edge">
<title>RefreshService&#45;&gt;AuthModule</title>
<path fill="none" stroke="black" d="M94,-122.11C94,-141.34 94,-169 94,-169 94,-169 262.4,-169 262.4,-169"/>
<polygon fill="black" stroke="black" points="262.4,-172.5 272.4,-169 262.4,-165.5 262.4,-172.5"/>
</g>
</g>
</svg>
