<?xml version="1.0" encoding="UTF-8" standalone="no"?>
<!DOCTYPE svg PUBLIC "-//W3C//DTD SVG 1.1//EN"
 "http://www.w3.org/Graphics/SVG/1.1/DTD/svg11.dtd">
<!-- Generated by graphviz version 2.47.0 (20210316.0004)
 -->
<!-- Title: dependencies Pages: 1 -->
<svg width="504pt" height="211pt"
 viewBox="0.00 0.00 504.00 211.00" xmlns="http://www.w3.org/2000/svg" xmlns:xlink="http://www.w3.org/1999/xlink">
<g id="graph0" class="graph" transform="scale(1 1) rotate(0) translate(4 207)">
<title>dependencies</title>
<polygon fill="white" stroke="transparent" points="-4,4 -4,-207 500,-207 500,4 -4,4"/>
<text text-anchor="start" x="227.01" y="-42.4" font-family="Times-12" font-weight="bold" font-size="14.00">Legend</text>
<polygon fill="#ffffb3" stroke="transparent" points="14,-10 14,-30 34,-30 34,-10 14,-10"/>
<text text-anchor="start" x="37.63" y="-15.4" font-family="Times-12" font-size="14.00"> &#160;Declarations</text>
<polygon fill="#8dd3c7" stroke="transparent" points="127,-10 127,-30 147,-30 147,-10 127,-10"/>
<text text-anchor="start" x="150.73" y="-15.4" font-family="Times-12" font-size="14.00"> &#160;Module</text>
<polygon fill="#80b1d3" stroke="transparent" points="213,-10 213,-30 233,-30 233,-10 213,-10"/>
<text text-anchor="start" x="236.78" y="-15.4" font-family="Times-12" font-size="14.00"> &#160;Bootstrap</text>
<polygon fill="#fdb462" stroke="transparent" points="310,-10 310,-30 330,-30 330,-10 310,-10"/>
<text text-anchor="start" x="333.67" y="-15.4" font-family="Times-12" font-size="14.00"> &#160;Providers</text>
<polygon fill="#fb8072" stroke="transparent" points="406,-10 406,-30 426,-30 426,-10 406,-10"/>
<text text-anchor="start" x="429.73" y="-15.4" font-family="Times-12" font-size="14.00"> &#160;Exports</text>
<g id="clust1" class="cluster">
<title>cluster_QuestionModule</title>
<polygon fill="none" stroke="black" stroke-dasharray="1,5" points="60,-70 60,-195 436,-195 436,-70 60,-70"/>
</g>
<g id="clust6" class="cluster">
<title>cluster_QuestionModule_providers</title>
<polygon fill="none" stroke="black" points="68,-78 68,-130 428,-130 428,-78 68,-78"/>
</g>
<!-- QuestionRepository -->
<g id="node1" class="node">
<title>QuestionRepository</title>
<ellipse fill="#fdb462" stroke="black" cx="332" cy="-104" rx="88.06" ry="18"/>
<text text-anchor="middle" x="332" y="-99.8" font-family="Times,serif" font-size="14.00">QuestionRepository</text>
</g>
<!-- QuestionModule -->
<g id="node3" class="node">
<title>QuestionModule</title>
<polygon fill="#8dd3c7" stroke="black" points="296.1,-187 293.1,-191 272.1,-191 269.1,-187 185.9,-187 185.9,-151 296.1,-151 296.1,-187"/>
<text text-anchor="middle" x="241" y="-164.8" font-family="Times,serif" font-size="14.00">QuestionModule</text>
</g>
<!-- QuestionRepository&#45;&gt;QuestionModule -->
<g id="edge1" class="edge">
<title>QuestionRepository&#45;&gt;QuestionModule</title>
<path fill="none" stroke="black" d="M269.88,-116.84C269.88,-116.84 269.88,-140.52 269.88,-140.52"/>
<polygon fill="black" stroke="black" points="266.38,-140.52 269.88,-150.52 273.38,-140.52 266.38,-140.52"/>
</g>
<!-- QuestionService -->
<g id="node2" class="node">
<title>QuestionService</title>
<ellipse fill="#fdb462" stroke="black" cx="151" cy="-104" rx="74.72" ry="18"/>
<text text-anchor="middle" x="151" y="-99.8" font-family="Times,serif" font-size="14.00">QuestionService</text>
</g>
<!-- QuestionService&#45;&gt;QuestionModule -->
<g id="edge2" class="edge">
<title>QuestionService&#45;&gt;QuestionModule</title>
<path fill="none" stroke="black" d="M205.9,-116.53C205.9,-116.53 205.9,-140.85 205.9,-140.85"/>
<polygon fill="black" stroke="black" points="202.41,-140.85 205.9,-150.85 209.41,-140.85 202.41,-140.85"/>
</g>
</g>
</svg>
