<?xml version="1.0" encoding="UTF-8" standalone="no"?>
<!DOCTYPE svg PUBLIC "-//W3C//DTD SVG 1.1//EN"
 "http://www.w3.org/Graphics/SVG/1.1/DTD/svg11.dtd">
<!-- Generated by graphviz version 2.47.0 (20210316.0004)
 -->
<!-- Title: dependencies Pages: 1 -->
<svg width="566pt" height="211pt"
 viewBox="0.00 0.00 566.00 211.00" xmlns="http://www.w3.org/2000/svg" xmlns:xlink="http://www.w3.org/1999/xlink">
<g id="graph0" class="graph" transform="scale(1 1) rotate(0) translate(4 207)">
<title>dependencies</title>
<polygon fill="white" stroke="transparent" points="-4,4 -4,-207 562,-207 562,4 -4,4"/>
<text text-anchor="start" x="258.01" y="-42.4" font-family="Times-12" font-weight="bold" font-size="14.00">Legend</text>
<polygon fill="#ffffb3" stroke="transparent" points="45,-10 45,-30 65,-30 65,-10 45,-10"/>
<text text-anchor="start" x="68.63" y="-15.4" font-family="Times-12" font-size="14.00"> &#160;Declarations</text>
<polygon fill="#8dd3c7" stroke="transparent" points="158,-10 158,-30 178,-30 178,-10 158,-10"/>
<text text-anchor="start" x="181.73" y="-15.4" font-family="Times-12" font-size="14.00"> &#160;Module</text>
<polygon fill="#80b1d3" stroke="transparent" points="244,-10 244,-30 264,-30 264,-10 244,-10"/>
<text text-anchor="start" x="267.78" y="-15.4" font-family="Times-12" font-size="14.00"> &#160;Bootstrap</text>
<polygon fill="#fdb462" stroke="transparent" points="341,-10 341,-30 361,-30 361,-10 341,-10"/>
<text text-anchor="start" x="364.67" y="-15.4" font-family="Times-12" font-size="14.00"> &#160;Providers</text>
<polygon fill="#fb8072" stroke="transparent" points="437,-10 437,-30 457,-30 457,-10 437,-10"/>
<text text-anchor="start" x="460.73" y="-15.4" font-family="Times-12" font-size="14.00"> &#160;Exports</text>
<g id="clust1" class="cluster">
<title>cluster_CandidateInterviewModule</title>
<polygon fill="none" stroke="black" stroke-dasharray="1,5" points="8,-70 8,-195 550,-195 550,-70 8,-70"/>
</g>
<g id="clust6" class="cluster">
<title>cluster_CandidateInterviewModule_providers</title>
<polygon fill="none" stroke="black" points="16,-78 16,-130 542,-130 542,-78 16,-78"/>
</g>
<!-- CandidateInterviewRepository -->
<g id="node1" class="node">
<title>CandidateInterviewRepository</title>
<ellipse fill="#fdb462" stroke="black" cx="404" cy="-104" rx="129.63" ry="18"/>
<text text-anchor="middle" x="404" y="-99.8" font-family="Times,serif" font-size="14.00">CandidateInterviewRepository</text>
</g>
<!-- CandidateInterviewModule -->
<g id="node3" class="node">
<title>CandidateInterviewModule</title>
<polygon fill="#8dd3c7" stroke="black" points="356.95,-187 353.95,-191 332.95,-191 329.95,-187 187.05,-187 187.05,-151 356.95,-151 356.95,-187"/>
<text text-anchor="middle" x="272" y="-164.8" font-family="Times,serif" font-size="14.00">CandidateInterviewModule</text>
</g>
<!-- CandidateInterviewRepository&#45;&gt;CandidateInterviewModule -->
<g id="edge1" class="edge">
<title>CandidateInterviewRepository&#45;&gt;CandidateInterviewModule</title>
<path fill="none" stroke="black" d="M315.7,-117.47C315.7,-117.47 315.7,-140.86 315.7,-140.86"/>
<polygon fill="black" stroke="black" points="312.2,-140.86 315.7,-150.86 319.2,-140.86 312.2,-140.86"/>
</g>
<!-- CandidateInterviewService -->
<g id="node2" class="node">
<title>CandidateInterviewService</title>
<ellipse fill="#fdb462" stroke="black" cx="140" cy="-104" rx="116.29" ry="18"/>
<text text-anchor="middle" x="140" y="-99.8" font-family="Times,serif" font-size="14.00">CandidateInterviewService</text>
</g>
<!-- CandidateInterviewService&#45;&gt;CandidateInterviewModule -->
<g id="edge2" class="edge">
<title>CandidateInterviewService&#45;&gt;CandidateInterviewModule</title>
<path fill="none" stroke="black" d="M221.58,-116.84C221.58,-116.84 221.58,-140.52 221.58,-140.52"/>
<polygon fill="black" stroke="black" points="218.08,-140.52 221.58,-150.52 225.08,-140.52 218.08,-140.52"/>
</g>
</g>
</svg>
