<?xml version="1.0" encoding="UTF-8" standalone="no"?>
<!DOCTYPE svg PUBLIC "-//W3C//DTD SVG 1.1//EN"
 "http://www.w3.org/Graphics/SVG/1.1/DTD/svg11.dtd">
<!-- Generated by graphviz version 2.47.0 (20210316.0004)
 -->
<!-- Title: dependencies Pages: 1 -->
<svg width="1452pt" height="211pt"
 viewBox="0.00 0.00 1452.00 211.00" xmlns="http://www.w3.org/2000/svg" xmlns:xlink="http://www.w3.org/1999/xlink">
<g id="graph0" class="graph" transform="scale(1 1) rotate(0) translate(4 207)">
<title>dependencies</title>
<polygon fill="white" stroke="transparent" points="-4,4 -4,-207 1448,-207 1448,4 -4,4"/>
<text text-anchor="start" x="701.01" y="-42.4" font-family="Times-12" font-weight="bold" font-size="14.00">Legend</text>
<polygon fill="#ffffb3" stroke="transparent" points="488,-10 488,-30 508,-30 508,-10 488,-10"/>
<text text-anchor="start" x="511.63" y="-15.4" font-family="Times-12" font-size="14.00"> &#160;Declarations</text>
<polygon fill="#8dd3c7" stroke="transparent" points="601,-10 601,-30 621,-30 621,-10 601,-10"/>
<text text-anchor="start" x="624.73" y="-15.4" font-family="Times-12" font-size="14.00"> &#160;Module</text>
<polygon fill="#80b1d3" stroke="transparent" points="687,-10 687,-30 707,-30 707,-10 687,-10"/>
<text text-anchor="start" x="710.78" y="-15.4" font-family="Times-12" font-size="14.00"> &#160;Bootstrap</text>
<polygon fill="#fdb462" stroke="transparent" points="784,-10 784,-30 804,-30 804,-10 784,-10"/>
<text text-anchor="start" x="807.67" y="-15.4" font-family="Times-12" font-size="14.00"> &#160;Providers</text>
<polygon fill="#fb8072" stroke="transparent" points="880,-10 880,-30 900,-30 900,-10 880,-10"/>
<text text-anchor="start" x="903.73" y="-15.4" font-family="Times-12" font-size="14.00"> &#160;Exports</text>
<g id="clust1" class="cluster">
<title>cluster_AppModule</title>
<polygon fill="none" stroke="black" stroke-dasharray="1,5" points="8,-70 8,-195 1436,-195 1436,-70 8,-70"/>
</g>
<g id="clust3" class="cluster">
<title>cluster_AppModule_imports</title>
<polygon fill="none" stroke="black" points="16,-78 16,-130 1428,-130 1428,-78 16,-78"/>
</g>
<!-- AuthModule -->
<g id="node1" class="node">
<title>AuthModule</title>
<polygon fill="#8dd3c7" stroke="black" points="1419.55,-122 1416.55,-126 1395.55,-126 1392.55,-122 1332.45,-122 1332.45,-86 1419.55,-86 1419.55,-122"/>
<text text-anchor="middle" x="1376" y="-99.8" font-family="Times,serif" font-size="14.00">AuthModule</text>
</g>
<!-- AppModule -->
<g id="node12" class="node">
<title>AppModule</title>
<polygon fill="#8dd3c7" stroke="black" points="810.66,-187 807.66,-191 786.66,-191 783.66,-187 727.34,-187 727.34,-151 810.66,-151 810.66,-187"/>
<text text-anchor="middle" x="769" y="-164.8" font-family="Times,serif" font-size="14.00">AppModule</text>
</g>
<!-- AuthModule&#45;&gt;AppModule -->
<g id="edge1" class="edge">
<title>AuthModule&#45;&gt;AppModule</title>
<path fill="none" stroke="black" d="M1376,-122.09C1376,-145.13 1376,-182 1376,-182 1376,-182 820.72,-182 820.72,-182"/>
<polygon fill="black" stroke="black" points="820.72,-178.5 810.72,-182 820.72,-185.5 820.72,-178.5"/>
</g>
<!-- CandidateInterviewModule -->
<g id="node2" class="node">
<title>CandidateInterviewModule</title>
<polygon fill="#8dd3c7" stroke="black" points="1313.95,-122 1310.95,-126 1289.95,-126 1286.95,-122 1144.05,-122 1144.05,-86 1313.95,-86 1313.95,-122"/>
<text text-anchor="middle" x="1229" y="-99.8" font-family="Times,serif" font-size="14.00">CandidateInterviewModule</text>
</g>
<!-- CandidateInterviewModule&#45;&gt;AppModule -->
<g id="edge2" class="edge">
<title>CandidateInterviewModule&#45;&gt;AppModule</title>
<path fill="none" stroke="black" d="M1200.68,-122.11C1200.68,-141.34 1200.68,-169 1200.68,-169 1200.68,-169 820.78,-169 820.78,-169"/>
<polygon fill="black" stroke="black" points="820.78,-165.5 810.78,-169 820.78,-172.5 820.78,-165.5"/>
</g>
<!-- CandidateInterviewModule&#45;&gt;AppModule -->
<g id="edge3" class="edge">
<title>CandidateInterviewModule&#45;&gt;AppModule</title>
<path fill="none" stroke="black" d="M1257.32,-122.28C1257.32,-143.32 1257.32,-175 1257.32,-175 1257.32,-175 821.06,-175 821.06,-175"/>
<polygon fill="black" stroke="black" points="821.06,-171.5 811.06,-175 821.06,-178.5 821.06,-171.5"/>
</g>
<!-- FinalTestModule -->
<g id="node3" class="node">
<title>FinalTestModule</title>
<polygon fill="#8dd3c7" stroke="black" points="1126.43,-122 1123.43,-126 1102.43,-126 1099.43,-122 1013.57,-122 1013.57,-86 1126.43,-86 1126.43,-122"/>
<text text-anchor="middle" x="1070" y="-99.8" font-family="Times,serif" font-size="14.00">FinalTestModule</text>
</g>
<!-- FinalTestModule&#45;&gt;AppModule -->
<g id="edge4" class="edge">
<title>FinalTestModule&#45;&gt;AppModule</title>
<path fill="none" stroke="black" d="M1070,-122.02C1070,-139.37 1070,-163 1070,-163 1070,-163 820.85,-163 820.85,-163"/>
<polygon fill="black" stroke="black" points="820.85,-159.5 810.85,-163 820.85,-166.5 820.85,-159.5"/>
</g>
<!-- InterviewModule -->
<g id="node4" class="node">
<title>InterviewModule</title>
<polygon fill="#8dd3c7" stroke="black" points="995.69,-122 992.69,-126 971.69,-126 968.69,-122 882.31,-122 882.31,-86 995.69,-86 995.69,-122"/>
<text text-anchor="middle" x="939" y="-99.8" font-family="Times,serif" font-size="14.00">InterviewModule</text>
</g>
<!-- InterviewModule&#45;&gt;AppModule -->
<g id="edge5" class="edge">
<title>InterviewModule&#45;&gt;AppModule</title>
<path fill="none" stroke="black" d="M939,-122.24C939,-137.57 939,-157 939,-157 939,-157 821.02,-157 821.02,-157"/>
<polygon fill="black" stroke="black" points="821.02,-153.5 811.02,-157 821.02,-160.5 821.02,-153.5"/>
</g>
<!-- JwtModule -->
<g id="node5" class="node">
<title>JwtModule</title>
<polygon fill="#8dd3c7" stroke="black" points="864.49,-122 861.49,-126 840.49,-126 837.49,-122 785.51,-122 785.51,-86 864.49,-86 864.49,-122"/>
<text text-anchor="middle" x="825" y="-99.8" font-family="Times,serif" font-size="14.00">JwtModule</text>
</g>
<!-- JwtModule&#45;&gt;AppModule -->
<g id="edge6" class="edge">
<title>JwtModule&#45;&gt;AppModule</title>
<path fill="none" stroke="black" d="M798.17,-122.11C798.17,-122.11 798.17,-140.99 798.17,-140.99"/>
<polygon fill="black" stroke="black" points="794.67,-140.99 798.17,-150.99 801.67,-140.99 794.67,-140.99"/>
</g>
<!-- PostgresModule -->
<g id="node6" class="node">
<title>PostgresModule</title>
<polygon fill="#8dd3c7" stroke="black" points="767.49,-122 764.49,-126 743.49,-126 740.49,-122 660.51,-122 660.51,-86 767.49,-86 767.49,-122"/>
<text text-anchor="middle" x="714" y="-99.8" font-family="Times,serif" font-size="14.00">PostgresModule</text>
</g>
<!-- PostgresModule&#45;&gt;AppModule -->
<g id="edge7" class="edge">
<title>PostgresModule&#45;&gt;AppModule</title>
<path fill="none" stroke="black" d="M747.33,-122.11C747.33,-122.11 747.33,-140.99 747.33,-140.99"/>
<polygon fill="black" stroke="black" points="743.83,-140.99 747.33,-150.99 750.83,-140.99 743.83,-140.99"/>
</g>
<!-- QuestionModule -->
<g id="node7" class="node">
<title>QuestionModule</title>
<polygon fill="#8dd3c7" stroke="black" points="642.1,-122 639.1,-126 618.1,-126 615.1,-122 531.9,-122 531.9,-86 642.1,-86 642.1,-122"/>
<text text-anchor="middle" x="587" y="-99.8" font-family="Times,serif" font-size="14.00">QuestionModule</text>
</g>
<!-- QuestionModule&#45;&gt;AppModule -->
<g id="edge8" class="edge">
<title>QuestionModule&#45;&gt;AppModule</title>
<path fill="none" stroke="black" d="M587,-122.24C587,-137.57 587,-157 587,-157 587,-157 717.25,-157 717.25,-157"/>
<polygon fill="black" stroke="black" points="717.25,-160.5 727.25,-157 717.25,-153.5 717.25,-160.5"/>
</g>
<!-- RedisModule -->
<g id="node8" class="node">
<title>RedisModule</title>
<polygon fill="#8dd3c7" stroke="black" points="513.94,-122 510.94,-126 489.94,-126 486.94,-122 422.06,-122 422.06,-86 513.94,-86 513.94,-122"/>
<text text-anchor="middle" x="468" y="-99.8" font-family="Times,serif" font-size="14.00">RedisModule</text>
</g>
<!-- RedisModule&#45;&gt;AppModule -->
<g id="edge9" class="edge">
<title>RedisModule&#45;&gt;AppModule</title>
<path fill="none" stroke="black" d="M468,-122.02C468,-139.37 468,-163 468,-163 468,-163 717.15,-163 717.15,-163"/>
<polygon fill="black" stroke="black" points="717.15,-166.5 727.15,-163 717.15,-159.5 717.15,-166.5"/>
</g>
<!-- ResponseBuilderModule -->
<g id="node9" class="node">
<title>ResponseBuilderModule</title>
<polygon fill="#8dd3c7" stroke="black" points="404.7,-122 401.7,-126 380.7,-126 377.7,-122 249.3,-122 249.3,-86 404.7,-86 404.7,-122"/>
<text text-anchor="middle" x="327" y="-99.8" font-family="Times,serif" font-size="14.00">ResponseBuilderModule</text>
</g>
<!-- ResponseBuilderModule&#45;&gt;AppModule -->
<g id="edge10" class="edge">
<title>ResponseBuilderModule&#45;&gt;AppModule</title>
<path fill="none" stroke="black" d="M327,-122.11C327,-141.34 327,-169 327,-169 327,-169 717.02,-169 717.02,-169"/>
<polygon fill="black" stroke="black" points="717.02,-172.5 727.02,-169 717.02,-165.5 717.02,-172.5"/>
</g>
<!-- SessionModule -->
<g id="node10" class="node">
<title>SessionModule</title>
<polygon fill="#8dd3c7" stroke="black" points="231.33,-122 228.33,-126 207.33,-126 204.33,-122 128.67,-122 128.67,-86 231.33,-86 231.33,-122"/>
<text text-anchor="middle" x="180" y="-99.8" font-family="Times,serif" font-size="14.00">SessionModule</text>
</g>
<!-- SessionModule&#45;&gt;AppModule -->
<g id="edge11" class="edge">
<title>SessionModule&#45;&gt;AppModule</title>
<path fill="none" stroke="black" d="M180,-122.28C180,-143.32 180,-175 180,-175 180,-175 717.11,-175 717.11,-175"/>
<polygon fill="black" stroke="black" points="717.11,-178.5 727.11,-175 717.11,-171.5 717.11,-178.5"/>
</g>
<!-- TaskModule -->
<g id="node11" class="node">
<title>TaskModule</title>
<polygon fill="#8dd3c7" stroke="black" points="110.26,-122 107.26,-126 86.26,-126 83.26,-122 23.74,-122 23.74,-86 110.26,-86 110.26,-122"/>
<text text-anchor="middle" x="67" y="-99.8" font-family="Times,serif" font-size="14.00">TaskModule</text>
</g>
<!-- TaskModule&#45;&gt;AppModule -->
<g id="edge12" class="edge">
<title>TaskModule&#45;&gt;AppModule</title>
<path fill="none" stroke="black" d="M67,-122.09C67,-145.13 67,-182 67,-182 67,-182 717.19,-182 717.19,-182"/>
<polygon fill="black" stroke="black" points="717.19,-185.5 727.19,-182 717.19,-178.5 717.19,-185.5"/>
</g>
</g>
</svg>
