<?xml version="1.0" encoding="UTF-8" standalone="no"?>
<!DOCTYPE svg PUBLIC "-//W3C//DTD SVG 1.1//EN"
 "http://www.w3.org/Graphics/SVG/1.1/DTD/svg11.dtd">
<!-- Generated by graphviz version 2.47.0 (20210316.0004)
 -->
<!-- Title: dependencies Pages: 1 -->
<svg width="504pt" height="211pt"
 viewBox="0.00 0.00 504.00 211.00" xmlns="http://www.w3.org/2000/svg" xmlns:xlink="http://www.w3.org/1999/xlink">
<g id="graph0" class="graph" transform="scale(1 1) rotate(0) translate(4 207)">
<title>dependencies</title>
<polygon fill="white" stroke="transparent" points="-4,4 -4,-207 500,-207 500,4 -4,4"/>
<text text-anchor="start" x="227.01" y="-42.4" font-family="Times-12" font-weight="bold" font-size="14.00">Legend</text>
<polygon fill="#ffffb3" stroke="transparent" points="14,-10 14,-30 34,-30 34,-10 14,-10"/>
<text text-anchor="start" x="37.63" y="-15.4" font-family="Times-12" font-size="14.00"> &#160;Declarations</text>
<polygon fill="#8dd3c7" stroke="transparent" points="127,-10 127,-30 147,-30 147,-10 127,-10"/>
<text text-anchor="start" x="150.73" y="-15.4" font-family="Times-12" font-size="14.00"> &#160;Module</text>
<polygon fill="#80b1d3" stroke="transparent" points="213,-10 213,-30 233,-30 233,-10 213,-10"/>
<text text-anchor="start" x="236.78" y="-15.4" font-family="Times-12" font-size="14.00"> &#160;Bootstrap</text>
<polygon fill="#fdb462" stroke="transparent" points="310,-10 310,-30 330,-30 330,-10 310,-10"/>
<text text-anchor="start" x="333.67" y="-15.4" font-family="Times-12" font-size="14.00"> &#160;Providers</text>
<polygon fill="#fb8072" stroke="transparent" points="406,-10 406,-30 426,-30 426,-10 406,-10"/>
<text text-anchor="start" x="429.73" y="-15.4" font-family="Times-12" font-size="14.00"> &#160;Exports</text>
<g id="clust1" class="cluster">
<title>cluster_InterviewModule</title>
<polygon fill="none" stroke="black" stroke-dasharray="1,5" points="56,-70 56,-195 440,-195 440,-70 56,-70"/>
</g>
<g id="clust6" class="cluster">
<title>cluster_InterviewModule_providers</title>
<polygon fill="none" stroke="black" points="64,-78 64,-130 432,-130 432,-78 64,-78"/>
</g>
<!-- InterviewRepository -->
<g id="node1" class="node">
<title>InterviewRepository</title>
<ellipse fill="#fdb462" stroke="black" cx="334" cy="-104" rx="90.33" ry="18"/>
<text text-anchor="middle" x="334" y="-99.8" font-family="Times,serif" font-size="14.00">InterviewRepository</text>
</g>
<!-- InterviewModule -->
<g id="node3" class="node">
<title>InterviewModule</title>
<polygon fill="#8dd3c7" stroke="black" points="297.69,-187 294.69,-191 273.69,-191 270.69,-187 184.31,-187 184.31,-151 297.69,-151 297.69,-187"/>
<text text-anchor="middle" x="241" y="-164.8" font-family="Times,serif" font-size="14.00">InterviewModule</text>
</g>
<!-- InterviewRepository&#45;&gt;InterviewModule -->
<g id="edge1" class="edge">
<title>InterviewRepository&#45;&gt;InterviewModule</title>
<path fill="none" stroke="black" d="M270.59,-116.84C270.59,-116.84 270.59,-140.52 270.59,-140.52"/>
<polygon fill="black" stroke="black" points="267.09,-140.52 270.59,-150.52 274.09,-140.52 267.09,-140.52"/>
</g>
<!-- InterviewService -->
<g id="node2" class="node">
<title>InterviewService</title>
<ellipse fill="#fdb462" stroke="black" cx="149" cy="-104" rx="76.98" ry="18"/>
<text text-anchor="middle" x="149" y="-99.8" font-family="Times,serif" font-size="14.00">InterviewService</text>
</g>
<!-- InterviewService&#45;&gt;InterviewModule -->
<g id="edge2" class="edge">
<title>InterviewService&#45;&gt;InterviewModule</title>
<path fill="none" stroke="black" d="M205.2,-116.53C205.2,-116.53 205.2,-140.85 205.2,-140.85"/>
<polygon fill="black" stroke="black" points="201.7,-140.85 205.2,-150.85 208.7,-140.85 201.7,-140.85"/>
</g>
</g>
</svg>
