<?xml version="1.0" encoding="UTF-8" standalone="no"?>
<!DOCTYPE svg PUBLIC "-//W3C//DTD SVG 1.1//EN"
 "http://www.w3.org/Graphics/SVG/1.1/DTD/svg11.dtd">
<!-- Generated by graphviz version 2.47.0 (20210316.0004)
 -->
<!-- Title: dependencies Pages: 1 -->
<svg width="600pt" height="211pt"
 viewBox="0.00 0.00 600.00 211.00" xmlns="http://www.w3.org/2000/svg" xmlns:xlink="http://www.w3.org/1999/xlink">
<g id="graph0" class="graph" transform="scale(1 1) rotate(0) translate(4 207)">
<title>dependencies</title>
<polygon fill="white" stroke="transparent" points="-4,4 -4,-207 596,-207 596,4 -4,4"/>
<text text-anchor="start" x="275.01" y="-42.4" font-family="Times-12" font-weight="bold" font-size="14.00">Legend</text>
<polygon fill="#ffffb3" stroke="transparent" points="62,-10 62,-30 82,-30 82,-10 62,-10"/>
<text text-anchor="start" x="85.63" y="-15.4" font-family="Times-12" font-size="14.00"> &#160;Declarations</text>
<polygon fill="#8dd3c7" stroke="transparent" points="175,-10 175,-30 195,-30 195,-10 175,-10"/>
<text text-anchor="start" x="198.73" y="-15.4" font-family="Times-12" font-size="14.00"> &#160;Module</text>
<polygon fill="#80b1d3" stroke="transparent" points="261,-10 261,-30 281,-30 281,-10 261,-10"/>
<text text-anchor="start" x="284.78" y="-15.4" font-family="Times-12" font-size="14.00"> &#160;Bootstrap</text>
<polygon fill="#fdb462" stroke="transparent" points="358,-10 358,-30 378,-30 378,-10 358,-10"/>
<text text-anchor="start" x="381.67" y="-15.4" font-family="Times-12" font-size="14.00"> &#160;Providers</text>
<polygon fill="#fb8072" stroke="transparent" points="454,-10 454,-30 474,-30 474,-10 454,-10"/>
<text text-anchor="start" x="477.73" y="-15.4" font-family="Times-12" font-size="14.00"> &#160;Exports</text>
<g id="clust1" class="cluster">
<title>cluster_SessionModule</title>
<polygon fill="none" stroke="black" stroke-dasharray="1,5" points="8,-70 8,-195 584,-195 584,-70 8,-70"/>
</g>
<g id="clust3" class="cluster">
<title>cluster_SessionModule_imports</title>
<polygon fill="none" stroke="black" points="362,-78 362,-130 576,-130 576,-78 362,-78"/>
</g>
<g id="clust6" class="cluster">
<title>cluster_SessionModule_providers</title>
<polygon fill="none" stroke="black" points="16,-78 16,-130 354,-130 354,-78 16,-78"/>
</g>
<!-- AuthModule -->
<g id="node1" class="node">
<title>AuthModule</title>
<polygon fill="#8dd3c7" stroke="black" points="567.55,-122 564.55,-126 543.55,-126 540.55,-122 480.45,-122 480.45,-86 567.55,-86 567.55,-122"/>
<text text-anchor="middle" x="524" y="-99.8" font-family="Times,serif" font-size="14.00">AuthModule</text>
</g>
<!-- SessionModule -->
<g id="node3" class="node">
<title>SessionModule</title>
<polygon fill="#8dd3c7" stroke="black" points="390.33,-187 387.33,-191 366.33,-191 363.33,-187 287.67,-187 287.67,-151 390.33,-151 390.33,-187"/>
<text text-anchor="middle" x="339" y="-164.8" font-family="Times,serif" font-size="14.00">SessionModule</text>
</g>
<!-- AuthModule&#45;&gt;SessionModule -->
<g id="edge1" class="edge">
<title>AuthModule&#45;&gt;SessionModule</title>
<path fill="none" stroke="black" d="M524,-122.11C524,-141.34 524,-169 524,-169 524,-169 400.53,-169 400.53,-169"/>
<polygon fill="black" stroke="black" points="400.53,-165.5 390.53,-169 400.53,-172.5 400.53,-165.5"/>
</g>
<!-- EmailModule -->
<g id="node2" class="node">
<title>EmailModule</title>
<polygon fill="#8dd3c7" stroke="black" points="462.49,-122 459.49,-126 438.49,-126 435.49,-122 369.51,-122 369.51,-86 462.49,-86 462.49,-122"/>
<text text-anchor="middle" x="416" y="-99.8" font-family="Times,serif" font-size="14.00">EmailModule</text>
</g>
<!-- EmailModule&#45;&gt;SessionModule -->
<g id="edge2" class="edge">
<title>EmailModule&#45;&gt;SessionModule</title>
<path fill="none" stroke="black" d="M379.83,-122.11C379.83,-122.11 379.83,-140.99 379.83,-140.99"/>
<polygon fill="black" stroke="black" points="376.33,-140.99 379.83,-150.99 383.33,-140.99 376.33,-140.99"/>
</g>
<!-- SessionRepository -->
<g id="node4" class="node">
<title>SessionRepository</title>
<ellipse fill="#fdb462" stroke="black" cx="263" cy="-104" rx="82.84" ry="18"/>
<text text-anchor="middle" x="263" y="-99.8" font-family="Times,serif" font-size="14.00">SessionRepository</text>
</g>
<!-- SessionRepository&#45;&gt;SessionModule -->
<g id="edge3" class="edge">
<title>SessionRepository&#45;&gt;SessionModule</title>
<path fill="none" stroke="black" d="M316.88,-117.78C316.88,-117.78 316.88,-140.55 316.88,-140.55"/>
<polygon fill="black" stroke="black" points="313.38,-140.55 316.88,-150.55 320.38,-140.55 313.38,-140.55"/>
</g>
<!-- SessionService -->
<g id="node5" class="node">
<title>SessionService</title>
<ellipse fill="#fdb462" stroke="black" cx="93" cy="-104" rx="69.5" ry="18"/>
<text text-anchor="middle" x="93" y="-99.8" font-family="Times,serif" font-size="14.00">SessionService</text>
</g>
<!-- SessionService&#45;&gt;SessionModule -->
<g id="edge4" class="edge">
<title>SessionService&#45;&gt;SessionModule</title>
<path fill="none" stroke="black" d="M93,-122.11C93,-141.34 93,-169 93,-169 93,-169 277.73,-169 277.73,-169"/>
<polygon fill="black" stroke="black" points="277.73,-172.5 287.73,-169 277.73,-165.5 277.73,-172.5"/>
</g>
</g>
</svg>
